<svg xmlns="http://www.w3.org/2000/svg" fill="none" viewBox="0 0 172 40"><g clip-path="url(#a)"><path fill="#023F3A" d="M20 0C8.9543 0 0 8.9543 0 20c11.0457 0 20-8.9543 20-20Zm0 40c11.0457 0 20-8.9543 20-20-11.0457 0-20 8.9543-20 20Z"/><path fill="#C13512" d="M20 0c11.0457 0 20 8.9543 20 20-11.0457 0-20-8.9543-20-20Zm0 40C8.9543 40-9.7e-7 31.0457 0 20c11.0457 0 20 8.9543 20 20Z"/></g><path fill="#222" d="M62.415 11.852v2.938h-7.566v4.654h5.798v2.886h-5.798V30h-3.64V11.852h11.206Zm1.6451 10.894c0-1.456.286-2.7473.858-3.874.5894-1.1267 1.378-1.9933 2.366-2.6 1.0054-.6067 2.1234-.91 3.354-.91 1.0747 0 2.0107.2167 2.808.65.8147.4333 1.4647.9793 1.95 1.638v-2.054h3.666V30h-3.666v-2.106c-.468.676-1.118 1.2393-1.95 1.69-.8146.4333-1.7593.65-2.834.65-1.2133 0-2.3226-.312-3.328-.936-.988-.624-1.7766-1.4993-2.366-2.626-.572-1.144-.858-2.4527-.858-3.926Zm11.336.052c0-.884-.1733-1.638-.52-2.262-.3466-.6413-.8146-1.1267-1.404-1.456-.5893-.3467-1.222-.52-1.898-.52-.676 0-1.3.1647-1.872.494-.572.3293-1.04.8147-1.404 1.456-.3466.624-.52 1.3693-.52 2.236 0 .8667.1734 1.6293.52 2.288.364.6413.832 1.1353 1.404 1.482.5894.3467 1.2134.52 1.872.52.676 0 1.3087-.1647 1.898-.494.5894-.3467 1.0574-.832 1.404-1.456.3467-.6413.52-1.404.52-2.288Zm10.8611-4.966c.468-.7627 1.0747-1.3607 1.82-1.794.7627-.4333 1.6294-.65 2.6-.65v3.822h-.962c-1.144 0-2.0106.2687-2.6.806-.572.5373-.858 1.4733-.858 2.808V30h-3.64V15.596h3.64v2.236Zm24.7598-2.444c1.768 0 3.189.546 4.264 1.638 1.092 1.0747 1.638 2.5827 1.638 4.524V30h-3.64v-7.956c0-1.1267-.286-1.9847-.858-2.574-.572-.6067-1.352-.91-2.34-.91-.988 0-1.777.3033-2.366.91-.572.5893-.858 1.4473-.858 2.574V30h-3.64v-7.956c0-1.1267-.286-1.9847-.858-2.574-.572-.6067-1.352-.91-2.34-.91-1.0054 0-1.8027.3033-2.392.91-.572.5893-.858 1.4473-.858 2.574V30h-3.64V15.596h3.64v1.742c.468-.6067 1.066-1.0833 1.794-1.43.7453-.3467 1.56-.52 2.444-.52 1.127 0 2.132.2427 3.016.728.884.468 1.569 1.144 2.054 2.028.468-.832 1.144-1.4993 2.028-2.002.901-.5027 1.872-.754 2.912-.754Zm11.202-1.508c-.641 0-1.179-.1993-1.612-.598-.416-.416-.624-.9273-.624-1.534s.208-1.1093.624-1.508c.433-.416.971-.624 1.612-.624.641 0 1.17.208 1.586.624.433.3987.65.9013.65 1.508s-.217 1.118-.65 1.534c-.416.3987-.945.598-1.586.598Zm1.794 1.716V30h-3.64V15.596h3.64Zm11.578-.208c1.716 0 3.103.546 4.16 1.638 1.058 1.0747 1.586 2.5827 1.586 4.524V30h-3.64v-7.956c0-1.144-.286-2.0193-.858-2.626-.572-.624-1.352-.936-2.34-.936-1.005 0-1.802.312-2.392.936-.572.6067-.858 1.482-.858 2.626V30h-3.64V15.596h3.64v1.794c.486-.624 1.101-1.1093 1.846-1.456.763-.364 1.595-.546 2.496-.546Zm15.604 14.846c-1.387 0-2.635-.3033-3.744-.91-1.109-.624-1.985-1.4993-2.626-2.626-.624-1.1267-.936-2.4267-.936-3.9s.321-2.7733.962-3.9c.659-1.1267 1.551-1.9933 2.678-2.6 1.127-.624 2.383-.936 3.77-.936s2.643.312 3.77.936c1.127.6067 2.011 1.4733 2.652 2.6.659 1.1267.988 2.4267.988 3.9s-.338 2.7733-1.014 3.9c-.659 1.1267-1.56 2.002-2.704 2.626-1.127.6067-2.392.91-3.796.91Zm0-3.172c.659 0 1.274-.156 1.846-.468.589-.3293 1.057-.8147 1.404-1.456s.52-1.4213.52-2.34c0-1.3693-.364-2.418-1.092-3.146-.711-.7453-1.586-1.118-2.626-1.118-1.04 0-1.915.3727-2.626 1.118-.693.728-1.04 1.7767-1.04 3.146s.338 2.4267 1.014 3.172c.693.728 1.56 1.092 2.6 1.092Z"/><defs><clipPath id="a"><path fill="#fff" d="M0 0h172v40H0z"/></clipPath></defs></svg>